<svg width="287" height="287" viewBox="0 0 287 287" fill="none" xmlns="http://www.w3.org/2000/svg">
<rect width="287" height="287" fill="white"/>
<path d="M69.08 175.38C62.0267 175.38 56.43 174.115 52.29 171.585C48.2267 168.978 45.3517 165.375 43.665 160.775C41.9783 156.098 41.135 150.617 41.135 144.33V110.75C41.135 104.31 41.9783 98.79 43.665 94.19C45.3517 89.5133 48.2267 85.91 52.29 83.38C56.43 80.85 62.0267 79.585 69.08 79.585C75.98 79.585 81.3467 80.735 85.18 83.035C89.09 85.2583 91.85 88.4017 93.46 92.465C95.07 96.5283 95.875 101.205 95.875 106.495V114.545H75.75V105.23C75.75 103.39 75.635 101.627 75.405 99.94C75.2517 98.2533 74.715 96.8733 73.795 95.8C72.875 94.65 71.3033 94.075 69.08 94.075C66.9333 94.075 65.3233 94.65 64.25 95.8C63.2533 96.95 62.6017 98.4067 62.295 100.17C62.065 101.857 61.95 103.658 61.95 105.575V149.39C61.95 151.46 62.1033 153.377 62.41 155.14C62.7933 156.827 63.4833 158.207 64.48 159.28C65.5533 160.277 67.0867 160.775 69.08 160.775C71.2267 160.775 72.76 160.238 73.68 159.165C74.6 158.015 75.175 156.558 75.405 154.795C75.635 153.032 75.75 151.23 75.75 149.39V139.615H95.875V147.665C95.875 152.955 95.07 157.708 93.46 161.925C91.9267 166.065 89.205 169.362 85.295 171.815C81.4617 174.192 76.0567 175.38 69.08 175.38ZM106.855 174L108.465 80.85H130.545L140.78 135.015L151.82 80.85H173.095L174.705 174H160.1L158.375 112.015L147.565 174H134.57L123.07 111.555L121.69 174H106.855Z" fill="black"/>
<path d="M177.95 112.59C177.95 110.29 177.95 108.067 177.95 105.92C178.027 103.697 178.103 101.665 178.18 99.825C178.333 93.2317 179.368 88.2867 181.285 84.99C183.202 81.6167 186.805 79.93 192.095 79.93L193.475 85.795C190.485 85.8717 188.568 86.8683 187.725 88.785C186.882 90.7017 186.46 93.155 186.46 96.145H194.395V112.59H177.95ZM223.847 175.38C218.02 175.38 213.152 174.345 209.242 172.275C205.332 170.205 202.38 167.023 200.387 162.73C198.393 158.36 197.282 152.725 197.052 145.825L214.647 143.18C214.723 147.167 215.068 150.387 215.682 152.84C216.372 155.293 217.292 157.057 218.442 158.13C219.668 159.203 221.125 159.74 222.812 159.74C224.958 159.74 226.338 159.012 226.952 157.555C227.642 156.098 227.987 154.565 227.987 152.955C227.987 149.122 227.067 145.902 225.227 143.295C223.387 140.612 220.895 137.928 217.752 135.245L209.702 128.23C206.175 125.24 203.185 121.867 200.732 118.11C198.355 114.277 197.167 109.562 197.167 103.965C197.167 96.0683 199.505 90.05 204.182 85.91C208.858 81.6933 215.222 79.585 223.272 79.585C228.255 79.585 232.242 80.4283 235.232 82.115C238.298 83.8017 240.598 86.025 242.132 88.785C243.742 91.4683 244.815 94.3433 245.352 97.41C245.965 100.4 246.31 103.275 246.387 106.035L228.677 108.22C228.6 105.46 228.408 103.083 228.102 101.09C227.872 99.02 227.335 97.4483 226.492 96.375C225.648 95.225 224.345 94.65 222.582 94.65C220.665 94.65 219.247 95.455 218.327 97.065C217.483 98.675 217.062 100.285 217.062 101.895C217.062 105.345 217.867 108.182 219.477 110.405C221.163 112.552 223.348 114.813 226.032 117.19L233.737 123.975C237.8 127.425 241.212 131.335 243.972 135.705C246.808 140.075 248.227 145.48 248.227 151.92C248.227 156.29 247.23 160.277 245.237 163.88C243.243 167.407 240.407 170.205 236.727 172.275C233.123 174.345 228.83 175.38 223.847 175.38Z" fill="black"/>
<path d="M12.7301 211V188.455H15.4602V198.494H27.4815V188.455H30.2116V211H27.4815V200.916H15.4602V211H12.7301ZM36.6021 188.455L43.2953 207.433H43.5595L50.2527 188.455H53.1149L44.8365 211H42.0183L33.7399 188.455H36.6021ZM55.6138 211H52.7516L61.03 188.455H63.8482L72.1266 211H69.2644L62.5272 192.021H62.351L55.6138 211ZM56.6706 202.193H68.2076V204.615H56.6706V202.193ZM92.7208 195.5H89.9907C89.8292 194.715 89.5467 194.025 89.143 193.43C88.7467 192.836 88.2623 192.337 87.6899 191.933C87.1248 191.522 86.4973 191.214 85.8074 191.009C85.1176 190.803 84.3983 190.7 83.6498 190.7C82.2847 190.7 81.0481 191.045 79.9399 191.735C78.839 192.425 77.962 193.441 77.3089 194.784C76.663 196.127 76.3401 197.775 76.3401 199.727C76.3401 201.679 76.663 203.327 77.3089 204.67C77.962 206.013 78.839 207.03 79.9399 207.719C81.0481 208.409 82.2847 208.754 83.6498 208.754C84.3983 208.754 85.1176 208.652 85.8074 208.446C86.4973 208.241 87.1248 207.936 87.6899 207.532C88.2623 207.121 88.7467 206.619 89.143 206.024C89.5467 205.422 89.8292 204.732 89.9907 203.955H92.7208C92.5153 205.107 92.141 206.138 91.5979 207.048C91.0548 207.958 90.3796 208.732 89.5724 209.371C88.7651 210.002 87.8587 210.483 86.8532 210.813C85.8551 211.143 84.7873 211.308 83.6498 211.308C81.7269 211.308 80.017 210.839 78.5198 209.899C77.0226 208.96 75.8447 207.624 74.9861 205.892C74.1274 204.16 73.6981 202.105 73.6981 199.727C73.6981 197.349 74.1274 195.295 74.9861 193.562C75.8447 191.83 77.0226 190.495 78.5198 189.555C80.017 188.616 81.7269 188.146 83.6498 188.146C84.7873 188.146 85.8551 188.311 86.8532 188.642C87.8587 188.972 88.7651 189.456 89.5724 190.095C90.3796 190.726 91.0548 191.497 91.5979 192.407C92.141 193.309 92.5153 194.34 92.7208 195.5ZM110.753 211.268C109.462 211.268 108.35 211.032 107.417 210.559C106.483 210.086 105.764 209.437 105.259 208.613C104.754 207.788 104.502 206.845 104.502 205.784C104.502 204.966 104.674 204.24 105.02 203.608C105.371 202.968 105.854 202.377 106.467 201.834C107.087 201.284 107.8 200.734 108.605 200.185L111.444 198.075C112 197.711 112.444 197.321 112.776 196.906C113.115 196.49 113.284 195.947 113.284 195.276C113.284 194.777 113.064 194.294 112.623 193.828C112.188 193.361 111.616 193.128 110.907 193.128C110.408 193.128 109.967 193.256 109.583 193.511C109.206 193.761 108.909 194.08 108.692 194.47C108.481 194.854 108.375 195.25 108.375 195.659C108.375 196.119 108.5 196.586 108.749 197.059C109.005 197.526 109.328 198.005 109.718 198.497C110.114 198.983 110.523 199.482 110.945 199.993L119.958 211H117.235L109.794 202.026C109.104 201.195 108.478 200.44 107.915 199.763C107.353 199.085 106.905 198.417 106.573 197.759C106.24 197.1 106.074 196.388 106.074 195.621C106.074 194.739 106.269 193.965 106.659 193.3C107.055 192.629 107.608 192.108 108.318 191.738C109.034 191.36 109.871 191.172 110.83 191.172C111.814 191.172 112.661 191.364 113.371 191.747C114.08 192.124 114.627 192.626 115.01 193.252C115.394 193.873 115.586 194.547 115.586 195.276C115.586 196.215 115.352 197.03 114.886 197.721C114.419 198.411 113.783 199.053 112.978 199.648L109.066 202.562C108.184 203.214 107.586 203.847 107.273 204.461C106.96 205.075 106.803 205.516 106.803 205.784C106.803 206.398 106.963 206.97 107.282 207.5C107.602 208.031 108.053 208.459 108.634 208.785C109.216 209.111 109.897 209.274 110.676 209.274C111.418 209.274 112.14 209.118 112.843 208.804C113.547 208.485 114.183 208.025 114.751 207.424C115.327 206.823 115.781 206.1 116.113 205.257C116.452 204.413 116.621 203.464 116.621 202.409H118.807C118.807 203.713 118.657 204.777 118.357 205.602C118.056 206.426 117.717 207.072 117.34 207.539C116.963 208.005 116.659 208.354 116.429 208.584C116.353 208.68 116.282 208.776 116.218 208.871C116.154 208.967 116.084 209.063 116.007 209.159C115.375 209.869 114.576 210.399 113.61 210.751C112.645 211.096 111.693 211.268 110.753 211.268ZM131.84 211V188.455H145.447V190.876H134.571V198.494H144.742V200.916H134.571V208.578H145.623V211H131.84ZM150.368 211V188.455H153.098V208.578H163.578V211H150.368ZM167.805 211V188.455H181.412V190.876H170.535V198.494H180.707V200.916H170.535V208.578H181.588V211H167.805ZM204.475 195.5H201.745C201.583 194.715 201.301 194.025 200.897 193.43C200.501 192.836 200.016 192.337 199.444 191.933C198.879 191.522 198.251 191.214 197.561 191.009C196.871 190.803 196.152 190.7 195.404 190.7C194.039 190.7 192.802 191.045 191.694 191.735C190.593 192.425 189.716 193.441 189.063 194.784C188.417 196.127 188.094 197.775 188.094 199.727C188.094 201.679 188.417 203.327 189.063 204.67C189.716 206.013 190.593 207.03 191.694 207.719C192.802 208.409 194.039 208.754 195.404 208.754C196.152 208.754 196.871 208.652 197.561 208.446C198.251 208.241 198.879 207.936 199.444 207.532C200.016 207.121 200.501 206.619 200.897 206.024C201.301 205.422 201.583 204.732 201.745 203.955H204.475C204.269 205.107 203.895 206.138 203.352 207.048C202.809 207.958 202.134 208.732 201.326 209.371C200.519 210.002 199.613 210.483 198.607 210.813C197.609 211.143 196.541 211.308 195.404 211.308C193.481 211.308 191.771 210.839 190.274 209.899C188.777 208.96 187.599 207.624 186.74 205.892C185.881 204.16 185.452 202.105 185.452 199.727C185.452 197.349 185.881 195.295 186.74 193.562C187.599 191.83 188.777 190.495 190.274 189.555C191.771 188.616 193.481 188.146 195.404 188.146C196.541 188.146 197.609 188.311 198.607 188.642C199.613 188.972 200.519 189.456 201.326 190.095C202.134 190.726 202.809 191.497 203.352 192.407C203.895 193.309 204.269 194.34 204.475 195.5ZM207.653 190.876V188.455H224.562V190.876H217.473V211H214.743V190.876H207.653ZM228.776 211V188.455H236.394C238.155 188.455 239.601 188.755 240.731 189.357C241.861 189.952 242.698 190.77 243.241 191.812C243.784 192.854 244.056 194.04 244.056 195.368C244.056 196.696 243.784 197.874 243.241 198.902C242.698 199.929 241.865 200.736 240.742 201.324C239.619 201.903 238.185 202.193 236.438 202.193H230.273V199.727H236.35C237.553 199.727 238.522 199.551 239.256 199.199C239.997 198.847 240.533 198.348 240.863 197.702C241.201 197.049 241.37 196.271 241.37 195.368C241.37 194.465 241.201 193.676 240.863 193.001C240.526 192.326 239.986 191.805 239.245 191.438C238.504 191.064 237.524 190.876 236.306 190.876H231.506V211H228.776ZM239.388 200.872L244.937 211H241.766L236.306 200.872H239.388ZM251.335 188.455V211H248.605V188.455H251.335ZM274.951 195.5H272.221C272.06 194.715 271.777 194.025 271.373 193.43C270.977 192.836 270.493 192.337 269.92 191.933C269.355 191.522 268.728 191.214 268.038 191.009C267.348 190.803 266.629 190.7 265.88 190.7C264.515 190.7 263.279 191.045 262.17 191.735C261.07 192.425 260.193 193.441 259.539 194.784C258.893 196.127 258.571 197.775 258.571 199.727C258.571 201.679 258.893 203.327 259.539 204.67C260.193 206.013 261.07 207.03 262.17 207.719C263.279 208.409 264.515 208.754 265.88 208.754C266.629 208.754 267.348 208.652 268.038 208.446C268.728 208.241 269.355 207.936 269.92 207.532C270.493 207.121 270.977 206.619 271.373 206.024C271.777 205.422 272.06 204.732 272.221 203.955H274.951C274.746 205.107 274.371 206.138 273.828 207.048C273.285 207.958 272.61 208.732 271.803 209.371C270.996 210.002 270.089 210.483 269.084 210.813C268.086 211.143 267.018 211.308 265.88 211.308C263.957 211.308 262.247 210.839 260.75 209.899C259.253 208.96 258.075 207.624 257.217 205.892C256.358 204.16 255.929 202.105 255.929 199.727C255.929 197.349 256.358 195.295 257.217 193.562C258.075 191.83 259.253 190.495 260.75 189.555C262.247 188.616 263.957 188.146 265.88 188.146C267.018 188.146 268.086 188.311 269.084 188.642C270.089 188.972 270.996 189.456 271.803 190.095C272.61 190.726 273.285 191.497 273.828 192.407C274.371 193.309 274.746 194.34 274.951 195.5Z" fill="black"/>
</svg>
