<svg width="216" height="105" viewBox="0 0 216 105" fill="none" xmlns="http://www.w3.org/2000/svg">
<path d="M33.58 104.38C26.5267 104.38 20.93 103.115 16.79 100.585C12.7267 97.9783 9.85167 94.375 8.165 89.775C6.47833 85.0983 5.635 79.6167 5.635 73.33V39.75C5.635 33.31 6.47833 27.79 8.165 23.19C9.85167 18.5133 12.7267 14.91 16.79 12.38C20.93 9.85 26.5267 8.585 33.58 8.585C40.48 8.585 45.8467 9.735 49.68 12.035C53.59 14.2583 56.35 17.4017 57.96 21.465C59.57 25.5283 60.375 30.205 60.375 35.495V43.545H40.25V34.23C40.25 32.39 40.135 30.6267 39.905 28.94C39.7517 27.2533 39.215 25.8733 38.295 24.8C37.375 23.65 35.8033 23.075 33.58 23.075C31.4333 23.075 29.8233 23.65 28.75 24.8C27.7533 25.95 27.1017 27.4067 26.795 29.17C26.565 30.8567 26.45 32.6583 26.45 34.575V78.39C26.45 80.46 26.6033 82.3767 26.91 84.14C27.2933 85.8267 27.9833 87.2067 28.98 88.28C30.0533 89.2767 31.5867 89.775 33.58 89.775C35.7267 89.775 37.26 89.2383 38.18 88.165C39.1 87.015 39.675 85.5583 39.905 83.795C40.135 82.0317 40.25 80.23 40.25 78.39V68.615H60.375V76.665C60.375 81.955 59.57 86.7083 57.96 90.925C56.4267 95.065 53.705 98.3617 49.795 100.815C45.9617 103.192 40.5567 104.38 33.58 104.38ZM71.3548 103L72.9648 9.84999H95.0448L105.28 64.015L116.32 9.84999H137.595L139.205 103H124.6L122.875 41.015L112.065 103H99.0698L87.5698 40.555L86.1898 103H71.3548Z" fill="#ffffff"/>
<path d="M142.45 41.59C142.45 39.29 142.45 37.0667 142.45 34.92C142.527 32.6967 142.603 30.665 142.68 28.825C142.833 22.2317 143.868 17.2867 145.785 13.99C147.702 10.6167 151.305 8.93 156.595 8.93L157.975 14.795C154.985 14.8717 153.068 15.8683 152.225 17.785C151.382 19.7017 150.96 22.155 150.96 25.145H158.895V41.59H142.45ZM188.347 104.38C182.52 104.38 177.652 103.345 173.742 101.275C169.832 99.205 166.88 96.0233 164.887 91.73C162.893 87.36 161.782 81.725 161.552 74.825L179.147 72.18C179.223 76.1667 179.568 79.3867 180.182 81.84C180.872 84.2933 181.792 86.0567 182.942 87.13C184.168 88.2033 185.625 88.74 187.312 88.74C189.458 88.74 190.838 88.0117 191.452 86.555C192.142 85.0983 192.487 83.565 192.487 81.955C192.487 78.1217 191.567 74.9017 189.727 72.295C187.887 69.6117 185.395 66.9283 182.252 64.245L174.202 57.23C170.675 54.24 167.685 50.8667 165.232 47.11C162.855 43.2767 161.667 38.5617 161.667 32.965C161.667 25.0683 164.005 19.05 168.682 14.91C173.358 10.6933 179.722 8.585 187.772 8.585C192.755 8.585 196.742 9.42833 199.732 11.115C202.798 12.8017 205.098 15.025 206.632 17.785C208.242 20.4683 209.315 23.3433 209.852 26.41C210.465 29.4 210.81 32.275 210.887 35.035L193.177 37.22C193.1 34.46 192.908 32.0833 192.602 30.09C192.372 28.02 191.835 26.4483 190.992 25.375C190.148 24.225 188.845 23.65 187.082 23.65C185.165 23.65 183.747 24.455 182.827 26.065C181.983 27.675 181.562 29.285 181.562 30.895C181.562 34.345 182.367 37.1817 183.977 39.405C185.663 41.5517 187.848 43.8133 190.532 46.19L198.237 52.975C202.3 56.425 205.712 60.335 208.472 64.705C211.308 69.075 212.727 74.48 212.727 80.92C212.727 85.29 211.73 89.2767 209.737 92.88C207.743 96.4067 204.907 99.205 201.227 101.275C197.623 103.345 193.33 104.38 188.347 104.38Z" fill="#ffffff"/>
</svg>
