<svg width="267" height="145" viewBox="0 0 267 145" fill="none" xmlns="http://www.w3.org/2000/svg">
<g clip-path="url(#clip0_2032_101)">
<path d="M59.08 104.38C52.0267 104.38 46.43 103.115 42.29 100.585C38.2267 97.9783 35.3517 94.375 33.665 89.775C31.9783 85.0983 31.135 79.6167 31.135 73.33V39.75C31.135 33.31 31.9783 27.79 33.665 23.19C35.3517 18.5133 38.2267 14.91 42.29 12.38C46.43 9.85 52.0267 8.585 59.08 8.585C65.98 8.585 71.3467 9.735 75.18 12.035C79.09 14.2583 81.85 17.4017 83.46 21.465C85.07 25.5283 85.875 30.205 85.875 35.495V43.545H65.75V34.23C65.75 32.39 65.635 30.6267 65.405 28.94C65.2517 27.2533 64.715 25.8733 63.795 24.8C62.875 23.65 61.3033 23.075 59.08 23.075C56.9333 23.075 55.3233 23.65 54.25 24.8C53.2533 25.95 52.6017 27.4067 52.295 29.17C52.065 30.8567 51.95 32.6583 51.95 34.575V78.39C51.95 80.46 52.1033 82.3767 52.41 84.14C52.7933 85.8267 53.4833 87.2067 54.48 88.28C55.5533 89.2767 57.0867 89.775 59.08 89.775C61.2267 89.775 62.76 89.2383 63.68 88.165C64.6 87.015 65.175 85.5583 65.405 83.795C65.635 82.0317 65.75 80.23 65.75 78.39V68.615H85.875V76.665C85.875 81.955 85.07 86.7083 83.46 90.925C81.9267 95.065 79.205 98.3617 75.295 100.815C71.4617 103.192 66.0567 104.38 59.08 104.38ZM96.8548 103L98.4648 9.84999H120.545L130.78 64.015L141.82 9.84999H163.095L164.705 103H150.1L148.375 41.015L137.565 103H124.57L113.07 40.555L111.69 103H96.8548Z" fill="white"/>
<path d="M167.95 41.59C167.95 39.29 167.95 37.0667 167.95 34.92C168.027 32.6967 168.103 30.665 168.18 28.825C168.333 22.2317 169.368 17.2867 171.285 13.99C173.202 10.6167 176.805 8.93 182.095 8.93L183.475 14.795C180.485 14.8717 178.568 15.8683 177.725 17.785C176.882 19.7017 176.46 22.155 176.46 25.145H184.395V41.59H167.95ZM213.847 104.38C208.02 104.38 203.152 103.345 199.242 101.275C195.332 99.205 192.38 96.0233 190.387 91.73C188.393 87.36 187.282 81.725 187.052 74.825L204.647 72.18C204.723 76.1667 205.068 79.3867 205.682 81.84C206.372 84.2933 207.292 86.0567 208.442 87.13C209.668 88.2033 211.125 88.74 212.812 88.74C214.958 88.74 216.338 88.0117 216.952 86.555C217.642 85.0983 217.987 83.565 217.987 81.955C217.987 78.1217 217.067 74.9017 215.227 72.295C213.387 69.6117 210.895 66.9283 207.752 64.245L199.702 57.23C196.175 54.24 193.185 50.8667 190.732 47.11C188.355 43.2767 187.167 38.5617 187.167 32.965C187.167 25.0683 189.505 19.05 194.182 14.91C198.858 10.6933 205.222 8.585 213.272 8.585C218.255 8.585 222.242 9.42833 225.232 11.115C228.298 12.8017 230.598 15.025 232.132 17.785C233.742 20.4683 234.815 23.3433 235.352 26.41C235.965 29.4 236.31 32.275 236.387 35.035L218.677 37.22C218.6 34.46 218.408 32.0833 218.102 30.09C217.872 28.02 217.335 26.4483 216.492 25.375C215.648 24.225 214.345 23.65 212.582 23.65C210.665 23.65 209.247 24.455 208.327 26.065C207.483 27.675 207.062 29.285 207.062 30.895C207.062 34.345 207.867 37.1817 209.477 39.405C211.163 41.5517 213.348 43.8133 216.032 46.19L223.737 52.975C227.8 56.425 231.212 60.335 233.972 64.705C236.808 69.075 238.227 74.48 238.227 80.92C238.227 85.29 237.23 89.2767 235.237 92.88C233.243 96.4067 230.407 99.205 226.727 101.275C223.123 103.345 218.83 104.38 213.847 104.38Z" fill="white"/>
<path d="M2.73011 140V117.455H5.46023V127.494H17.4815V117.455H20.2116V140H17.4815V129.916H5.46023V140H2.73011ZM26.6021 117.455L33.2953 136.433H33.5595L40.2527 117.455H43.1149L34.8365 140H32.0183L23.7399 117.455H26.6021ZM45.6138 140H42.7516L51.03 117.455H53.8482L62.1266 140H59.2644L52.5272 121.021H52.351L45.6138 140ZM46.6706 131.193H58.2076V133.615H46.6706V131.193ZM82.7208 124.5H79.9907C79.8292 123.715 79.5467 123.025 79.143 122.43C78.7467 121.836 78.2623 121.337 77.6899 120.933C77.1248 120.522 76.4973 120.214 75.8074 120.009C75.1176 119.803 74.3983 119.7 73.6498 119.7C72.2847 119.7 71.0481 120.045 69.9399 120.735C68.839 121.425 67.962 122.441 67.3089 123.784C66.663 125.127 66.3401 126.775 66.3401 128.727C66.3401 130.679 66.663 132.327 67.3089 133.67C67.962 135.013 68.839 136.03 69.9399 136.719C71.0481 137.409 72.2847 137.754 73.6498 137.754C74.3983 137.754 75.1176 137.652 75.8074 137.446C76.4973 137.241 77.1248 136.936 77.6899 136.532C78.2623 136.121 78.7467 135.619 79.143 135.024C79.5467 134.422 79.8292 133.732 79.9907 132.955H82.7208C82.5153 134.107 82.141 135.138 81.5979 136.048C81.0548 136.958 80.3796 137.732 79.5724 138.371C78.7651 139.002 77.8587 139.483 76.8532 139.813C75.8551 140.143 74.7873 140.308 73.6498 140.308C71.7269 140.308 70.017 139.839 68.5198 138.899C67.0226 137.96 65.8447 136.624 64.9861 134.892C64.1274 133.16 63.6981 131.105 63.6981 128.727C63.6981 126.349 64.1274 124.295 64.9861 122.562C65.8447 120.83 67.0226 119.495 68.5198 118.555C70.017 117.616 71.7269 117.146 73.6498 117.146C74.7873 117.146 75.8551 117.311 76.8532 117.642C77.8587 117.972 78.7651 118.456 79.5724 119.095C80.3796 119.726 81.0548 120.497 81.5979 121.407C82.141 122.309 82.5153 123.34 82.7208 124.5ZM100.753 140.268C99.462 140.268 98.3498 140.032 97.4165 139.559C96.4833 139.086 95.7642 138.437 95.2592 137.613C94.7543 136.788 94.5018 135.845 94.5018 134.784C94.5018 133.966 94.6744 133.24 95.0195 132.608C95.3711 131.968 95.8537 131.377 96.4673 130.834C97.0874 130.284 97.8001 129.734 98.6055 129.185L101.444 127.075C102 126.711 102.444 126.321 102.776 125.906C103.115 125.49 103.284 124.947 103.284 124.276C103.284 123.777 103.064 123.294 102.623 122.828C102.188 122.361 101.616 122.128 100.907 122.128C100.408 122.128 99.967 122.256 99.5835 122.511C99.2063 122.761 98.9091 123.08 98.6918 123.47C98.4808 123.854 98.3754 124.25 98.3754 124.659C98.3754 125.119 98.5 125.586 98.7493 126.059C99.005 126.526 99.3278 127.005 99.7177 127.497C100.114 127.983 100.523 128.482 100.945 128.993L109.958 140H107.235L99.7944 131.026C99.104 130.195 98.4776 129.44 97.9151 128.763C97.3526 128.085 96.9052 127.417 96.5728 126.759C96.2404 126.1 96.0742 125.388 96.0742 124.621C96.0742 123.739 96.2692 122.965 96.6591 122.3C97.0554 121.629 97.6083 121.108 98.3178 120.738C99.0337 120.36 99.8711 120.172 100.83 120.172C101.814 120.172 102.661 120.364 103.371 120.747C104.08 121.124 104.627 121.626 105.01 122.252C105.394 122.873 105.586 123.547 105.586 124.276C105.586 125.215 105.352 126.03 104.886 126.721C104.419 127.411 103.783 128.053 102.978 128.648L99.0657 131.562C98.1836 132.214 97.5859 132.847 97.2727 133.461C96.9595 134.075 96.8029 134.516 96.8029 134.784C96.8029 135.398 96.9627 135.97 97.2823 136.5C97.6019 137.031 98.0526 137.459 98.6342 137.785C99.2159 138.111 99.8967 138.274 100.676 138.274C101.418 138.274 102.14 138.118 102.843 137.804C103.547 137.485 104.183 137.025 104.751 136.424C105.327 135.823 105.781 135.1 106.113 134.257C106.452 133.413 106.621 132.464 106.621 131.409H108.807C108.807 132.713 108.657 133.777 108.357 134.602C108.056 135.426 107.717 136.072 107.34 136.539C106.963 137.005 106.659 137.354 106.429 137.584C106.353 137.68 106.282 137.776 106.218 137.871C106.154 137.967 106.084 138.063 106.007 138.159C105.375 138.869 104.576 139.399 103.61 139.751C102.645 140.096 101.693 140.268 100.753 140.268ZM121.84 140V117.455H135.447V119.876H124.571V127.494H134.742V129.916H124.571V137.578H135.623V140H121.84ZM140.368 140V117.455H143.098V137.578H153.578V140H140.368ZM157.805 140V117.455H171.412V119.876H160.535V127.494H170.707V129.916H160.535V137.578H171.588V140H157.805ZM194.475 124.5H191.745C191.583 123.715 191.301 123.025 190.897 122.43C190.501 121.836 190.016 121.337 189.444 120.933C188.879 120.522 188.251 120.214 187.561 120.009C186.871 119.803 186.152 119.7 185.404 119.7C184.039 119.7 182.802 120.045 181.694 120.735C180.593 121.425 179.716 122.441 179.063 123.784C178.417 125.127 178.094 126.775 178.094 128.727C178.094 130.679 178.417 132.327 179.063 133.67C179.716 135.013 180.593 136.03 181.694 136.719C182.802 137.409 184.039 137.754 185.404 137.754C186.152 137.754 186.871 137.652 187.561 137.446C188.251 137.241 188.879 136.936 189.444 136.532C190.016 136.121 190.501 135.619 190.897 135.024C191.301 134.422 191.583 133.732 191.745 132.955H194.475C194.269 134.107 193.895 135.138 193.352 136.048C192.809 136.958 192.134 137.732 191.326 138.371C190.519 139.002 189.613 139.483 188.607 139.813C187.609 140.143 186.541 140.308 185.404 140.308C183.481 140.308 181.771 139.839 180.274 138.899C178.777 137.96 177.599 136.624 176.74 134.892C175.881 133.16 175.452 131.105 175.452 128.727C175.452 126.349 175.881 124.295 176.74 122.562C177.599 120.83 178.777 119.495 180.274 118.555C181.771 117.616 183.481 117.146 185.404 117.146C186.541 117.146 187.609 117.311 188.607 117.642C189.613 117.972 190.519 118.456 191.326 119.095C192.134 119.726 192.809 120.497 193.352 121.407C193.895 122.309 194.269 123.34 194.475 124.5ZM197.653 119.876V117.455H214.562V119.876H207.473V140H204.743V119.876H197.653ZM218.776 140V117.455H226.394C228.155 117.455 229.601 117.755 230.731 118.357C231.861 118.952 232.698 119.77 233.241 120.812C233.784 121.854 234.056 123.04 234.056 124.368C234.056 125.696 233.784 126.874 233.241 127.902C232.698 128.929 231.865 129.736 230.742 130.324C229.619 130.903 228.185 131.193 226.438 131.193H220.273V128.727H226.35C227.553 128.727 228.522 128.551 229.256 128.199C229.997 127.847 230.533 127.348 230.863 126.702C231.201 126.049 231.37 125.271 231.37 124.368C231.37 123.465 231.201 122.676 230.863 122.001C230.526 121.326 229.986 120.805 229.245 120.438C228.504 120.064 227.524 119.876 226.306 119.876H221.506V140H218.776ZM229.388 129.872L234.937 140H231.766L226.306 129.872H229.388ZM241.335 117.455V140H238.605V117.455H241.335ZM264.951 124.5H262.221C262.06 123.715 261.777 123.025 261.373 122.43C260.977 121.836 260.493 121.337 259.92 120.933C259.355 120.522 258.728 120.214 258.038 120.009C257.348 119.803 256.629 119.7 255.88 119.7C254.515 119.7 253.279 120.045 252.17 120.735C251.07 121.425 250.193 122.441 249.539 123.784C248.893 125.127 248.571 126.775 248.571 128.727C248.571 130.679 248.893 132.327 249.539 133.67C250.193 135.013 251.07 136.03 252.17 136.719C253.279 137.409 254.515 137.754 255.88 137.754C256.629 137.754 257.348 137.652 258.038 137.446C258.728 137.241 259.355 136.936 259.92 136.532C260.493 136.121 260.977 135.619 261.373 135.024C261.777 134.422 262.06 133.732 262.221 132.955H264.951C264.746 134.107 264.371 135.138 263.828 136.048C263.285 136.958 262.61 137.732 261.803 138.371C260.996 139.002 260.089 139.483 259.084 139.813C258.086 140.143 257.018 140.308 255.88 140.308C253.957 140.308 252.247 139.839 250.75 138.899C249.253 137.96 248.075 136.624 247.217 134.892C246.358 133.16 245.929 131.105 245.929 128.727C245.929 126.349 246.358 124.295 247.217 122.562C248.075 120.83 249.253 119.495 250.75 118.555C252.247 117.616 253.957 117.146 255.88 117.146C257.018 117.146 258.086 117.311 259.084 117.642C260.089 117.972 260.996 118.456 261.803 119.095C262.61 119.726 263.285 120.497 263.828 121.407C264.371 122.309 264.746 123.34 264.951 124.5Z" fill="white"/>
</g>
<defs>
<clipPath id="clip0_2032_101">
<rect width="267" height="145" fill="white"/>
</clipPath>
</defs>
</svg>
